<svg xmlns="http://www.w3.org/2000/svg" width="32" height="16" viewBox="0 0 32 16" version="1.1">
	<path d="M 1 7.500 L 1 14 7.500 14 L 14 14 14 7.500 L 14 1 7.500 1 L 1 1 1 7.500 M 2 7.500 L 2 13 7.500 13 L 13 13 13 7.500 L 13 2 7.500 2 L 2 2 2 7.500 M 5 7.500 C 5 8.875, 5.450 10, 6 10 C 6.550 10, 7 8.875, 7 7.500 C 7 6.125, 6.550 5, 6 5 C 5.450 5, 5 6.125, 5 7.500 M 8 7.500 C 8 8.875, 8.450 10, 9 10 C 9.550 10, 10 8.875, 10 7.500 C 10 6.125, 9.550 5, 9 5 C 8.450 5, 8 6.125, 8 7.500" stroke="none" fill="blue" fill-rule="evenodd"/>
</svg>